<?xml version="1.0" standalone="no"?>
<!DOCTYPE svg PUBLIC "-//W3C//DTD SVG 20010904//EN"
 "http://www.w3.org/TR/2001/REC-SVG-20010904/DTD/svg10.dtd">
<svg version="1.0" xmlns="http://www.w3.org/2000/svg"
 width="320.000000pt" height="320.000000pt" viewBox="0 0 320.000000 320.000000"
 preserveAspectRatio="xMidYMid meet">

<g transform="translate(0.000000,320.000000) scale(0.100000,-0.100000)"
fill="#000000" stroke="none">
<path d="M2410 2455 c-298 -47 -577 -198 -776 -420 l-66 -74 -78 55 c-220 154
-457 223 -724 211 -206 -9 -368 -54 -530 -147 l-76 -44 0 -109 c0 -86 3 -107
12 -100 170 134 332 202 537 225 327 36 666 -97 859 -336 17 -22 33 -38 35
-35 2 2 29 44 61 92 142 216 376 388 628 461 234 68 449 62 726 -20 22 -6 22
-5 22 94 l0 100 -87 21 c-188 43 -376 52 -543 26z"/>
<path d="M2437 2145 c-367 -70 -644 -302 -792 -664 l-23 -55 -22 45 c-57 112
-161 230 -264 301 -75 52 -202 110 -291 134 -100 27 -360 27 -460 0 -137 -37
-269 -108 -373 -201 l-52 -47 0 -129 0 -130 51 61 c106 127 271 234 429 276
90 25 282 25 370 1 146 -40 284 -132 376 -252 39 -51 108 -179 127 -237 6 -16
21 -18 126 -18 l121 0 5 28 c61 307 222 522 487 647 125 59 213 77 373 77 152
0 244 -17 353 -67 30 -14 56 -25 58 -25 2 0 4 42 4 93 l0 93 -82 27 c-125 39
-181 48 -318 53 -84 2 -151 -1 -203 -11z"/>
<path d="M160 1055 c0 -31 5 -47 15 -51 12 -5 15 -26 15 -101 0 -88 2 -96 28
-129 26 -33 30 -34 93 -34 61 0 67 2 97 33 32 32 32 34 32 130 0 58 4 97 10
97 6 0 10 23 10 50 l0 50 -70 0 -70 0 7 -136 c6 -130 5 -136 -13 -132 -17 3
-19 14 -22 91 -2 58 1 87 8 87 7 0 10 16 8 43 l-3 42 -72 3 -73 3 0 -46z"/>
<path d="M510 1050 c0 -27 5 -50 10 -50 6 0 10 -35 10 -85 0 -50 -4 -85 -10
-85 -5 0 -10 -20 -10 -45 l0 -45 70 0 70 0 0 45 c0 33 -4 45 -15 45 -11 0 -15
11 -15 43 l0 42 47 -87 47 -88 43 0 43 0 0 129 c0 107 3 130 16 135 11 4 14
17 12 48 l-3 43 -67 3 -68 3 0 -46 c0 -33 4 -45 15 -45 10 0 15 -10 15 -32 0
-39 -5 -34 -50 50 l-36 67 -62 3 -62 3 0 -51z"/>
<path d="M877 1093 c-14 -13 -7 -84 8 -89 12 -5 15 -24 15 -85 0 -62 -3 -81
-15 -85 -10 -4 -15 -20 -15 -50 l0 -44 75 0 75 0 0 44 c0 25 -4 48 -10 51 -5
3 -10 42 -10 86 0 46 4 79 10 79 6 0 10 23 10 50 l0 50 -68 0 c-38 0 -72 -3
-75 -7z"/>
<path d="M1130 973 c-23 -71 -48 -133 -56 -139 -8 -7 -14 -28 -14 -53 l0 -41
70 0 70 0 0 45 c0 25 -4 45 -10 45 -5 0 -10 5 -10 10 0 6 16 10 35 10 19 0 35
-4 35 -10 0 -5 -4 -10 -10 -10 -5 0 -10 -20 -10 -45 l0 -45 75 0 75 0 0 44 c0
34 -4 45 -18 48 -13 4 -28 39 -57 137 l-38 131 -48 0 -48 0 -41 -127z"/>
<path d="M1432 1067 c-27 -28 -32 -40 -32 -82 0 -67 35 -105 97 -105 39 0 43
-2 43 -25 0 -31 -29 -34 -37 -5 -5 18 -12 21 -52 18 -42 -3 -46 -5 -49 -32 -3
-21 5 -37 29 -62 30 -31 38 -34 94 -34 56 0 64 3 93 33 28 29 32 40 32 89 0
81 -24 108 -96 108 -41 0 -54 4 -54 15 0 9 9 15 25 15 14 0 25 -4 25 -10 0 -5
20 -10 45 -10 44 0 45 1 45 32 0 21 -9 41 -27 60 -24 25 -34 28 -88 28 -56 0
-64 -3 -93 -33z"/>
<path d="M1712 1067 c-27 -28 -32 -40 -32 -82 0 -39 5 -54 27 -77 22 -23 35
-28 76 -28 44 0 48 -2 45 -22 -4 -30 -34 -35 -41 -8 -4 16 -13 20 -51 20 l-46
0 0 -37 c0 -26 8 -45 27 -65 24 -25 34 -28 88 -28 56 0 64 3 93 33 29 30 32
39 32 93 0 78 -23 104 -93 104 -35 0 -47 4 -47 15 0 8 9 15 20 15 11 0 20 -4
20 -10 0 -5 23 -10 50 -10 48 0 50 1 50 28 0 19 -11 39 -33 60 -30 29 -39 32
-93 32 -55 0 -63 -3 -92 -33z"/>
<path d="M1980 1050 c0 -27 5 -50 10 -50 6 0 10 -33 10 -79 0 -44 -4 -83 -10
-86 -5 -3 -10 -26 -10 -51 l0 -44 130 0 130 0 0 60 0 60 -41 0 c-27 0 -46 -6
-54 -17 -15 -21 -48 -10 -43 14 2 13 15 19 46 21 l43 3 -3 42 c-3 42 -3 42
-45 45 -29 2 -43 8 -43 18 0 8 10 14 25 14 14 0 25 -4 25 -10 0 -5 20 -10 45
-10 l45 0 0 60 0 60 -130 0 -130 0 0 -50z"/>
<path d="M2290 1050 c0 -27 5 -50 10 -50 6 0 10 -35 10 -85 0 -50 -4 -85 -10
-85 -5 0 -10 -20 -10 -45 l0 -45 125 0 125 0 0 75 0 75 -45 0 c-44 0 -45 -1
-45 -31 0 -24 -4 -30 -17 -27 -15 3 -18 16 -21 86 -2 68 0 82 13 82 11 0 15
12 15 50 l0 50 -75 0 -75 0 0 -50z"/>
<path d="M2540 1051 c0 -38 4 -50 18 -53 13 -4 29 -39 57 -132 l40 -127 44 3
c37 3 46 7 52 28 4 14 22 71 38 126 25 80 36 103 52 107 17 5 20 12 17 49 l-3
43 -74 3 -74 3 5 -64 c3 -38 1 -75 -7 -93 l-12 -29 -7 30 c-5 17 -8 58 -7 93
l2 62 -71 0 -70 0 0 -49z"/>
<path d="M2890 1050 c0 -27 5 -50 10 -50 6 0 10 -33 10 -79 0 -44 -4 -83 -10
-86 -5 -3 -10 -26 -10 -51 l0 -44 75 0 75 0 0 44 c0 30 -5 46 -15 50 -12 4
-15 23 -15 85 0 61 3 80 15 85 10 4 15 20 15 51 l0 45 -75 0 -75 0 0 -50z"/>
</g>
</svg>
